<?xml version="1.0" standalone="no"?><!DOCTYPE svg PUBLIC "-//W3C//DTD SVG 1.1//EN" "http://www.w3.org/Graphics/SVG/1.1/DTD/svg11.dtd"><svg t="1786688726205" class="icon" viewBox="0 0 1024 1024" version="1.1" xmlns="http://www.w3.org/2000/svg" p-id="4224" xmlns:xlink="http://www.w3.org/1999/xlink" width="64" height="64"><path d="M649.6 248a49.664 49.664 0 1 0-99.264 0 49.664 49.664 0 0 0 99.264 0z m76.8 0a126.336 126.336 0 1 1-252.8 0 126.336 126.336 0 0 1 252.8 0z" fill="#232323" p-id="4225"></path><path d="M512 209.6a38.4 38.4 0 1 1 0 76.8H160a38.4 38.4 0 1 1 0-76.8H512zM864 209.6a38.4 38.4 0 1 1 0 76.8h-176a38.4 38.4 0 1 1 0-76.8h176zM385.6 512a49.664 49.664 0 1 0-99.264 0 49.664 49.664 0 0 0 99.264 0z m76.8 0a126.336 126.336 0 1 1-252.8 0 126.336 126.336 0 0 1 252.8 0z" fill="#232323" p-id="4226"></path><path d="M248 473.6a38.4 38.4 0 1 1 0 76.8H160a38.4 38.4 0 1 1 0-76.8h88zM864 473.6a38.4 38.4 0 1 1 0 76.8H424a38.4 38.4 0 1 1 0-76.8H864zM781.632 776a49.664 49.664 0 1 0-99.328 0 49.664 49.664 0 0 0 99.328 0z m76.736 0a126.336 126.336 0 1 1-252.736 0 126.336 126.336 0 0 1 252.736 0z" fill="#232323" p-id="4227"></path><path d="M644.032 737.6a38.4 38.4 0 1 1 0 76.8H160a38.4 38.4 0 1 1 0-76.8h484.032zM864 737.6a38.4 38.4 0 1 1 0 76.8h-44.032a38.4 38.4 0 1 1 0-76.8h44.032z" fill="#232323" p-id="4228"></path></svg>